<svg xmlns="http://www.w3.org/2000/svg" viewBox="0 0 53.679 53.679" style="enable-background:new 0 0 53.679 53.679" xml:space="preserve"><path d="m42.819 10.169-.004-.003c-.017-.012-.038-.018-.055-.029a1.637 1.637 0 0 0-.751-1.52c-2.574-1.65-7.554-4.059-12.487-2.083V2.786C29.522 1.25 28.409 0 27.041 0h-2.223c-1.369 0-2.482 1.25-2.482 2.786v4.105c-2.224-.396-7.069-.788-11.725 1.993a1.651 1.651 0 0 0-.705 2.028c.029.079.083.138.122.209-.102.027-.208.05-.309.077-.236.063-.462.18-.658.341C3.553 16.122.394 22.656.394 29.464c0 13.352 11.863 24.214 26.446 24.214s26.446-10.862 26.446-24.214c0-7.638-3.815-14.671-10.467-19.295zM22.332 8.928c.491.103.997-.021 1.387-.34.393-.319.617-.794.617-1.301V2.786c0-.442.26-.786.482-.786h2.223c.223 0 .481.344.481.786v4.249c0 .57.286 1.095.766 1.403.481.31 1.08.353 1.602.113 3.655-1.671 7.521-.249 9.994 1.124-2.332-.03-4.23.155-5.684.513a1.65 1.65 0 0 0-1.246 1.366 1.691 1.691 0 0 0 .821 1.708c1.454.855 2.406 1.815 3.038 2.758a6.86 6.86 0 0 1 .92 1.964c-2.191-1.794-4.648-2.453-6.332-2.689a13.213 13.213 0 0 0-1.388-.122 1.658 1.658 0 0 0-1.226.478c-.327.321-.511.77-.504 1.231.08 5.136-1.695 8.581-2.727 10.14-.985-2.088-1.289-6.58-1.234-10.271a1.682 1.682 0 0 0-1.479-1.688 6.11 6.11 0 0 0-.778-.049c-.05 0-.101.009-.15.011-.136.003-.273.018-.41.029a7.29 7.29 0 0 0-.619.072 8.158 8.158 0 0 0-.402.08 9.714 9.714 0 0 0-1.675.518c-.122.049-.243.097-.364.15-.222.097-.442.2-.66.309-.114.056-.228.111-.341.17-.225.118-.445.243-.665.371-.103.06-.206.116-.308.178-.239.145-.471.295-.701.447-.075.05-.153.097-.227.147-.303.205-.598.414-.883.625.358-.649.74-1.227 1.129-1.747.021-.028.041-.06.061-.087.409-.539.824-1.01 1.228-1.419l.006-.006c.533-.54 1.038-.961 1.483-1.295.064-.048.132-.103.193-.147l.1-.069c.123-.087.245-.172.353-.243.524-.343.812-.943.747-1.568a1.668 1.668 0 0 0-1.051-1.389c-.051-.02-.114-.03-.167-.049a7.39 7.39 0 0 0-.703-.208 7.678 7.678 0 0 0-.468-.104c-.023-.004-.043-.011-.067-.015-.015-.003-.029.001-.044-.001-1.141-.2-2.487-.23-4.056-.062 3.772-1.564 7.401-1.1 8.928-.784zm4.507 42.751c-13.479 0-24.446-9.965-24.446-22.214 0-6.195 2.881-12.153 7.899-16.349a59.17 59.17 0 0 1 6.829-1.368c.079.014.166.022.242.038.063.013.128.025.188.039-.09.065-.19.147-.285.219-.104.08-.203.152-.312.24-.095.077-.196.169-.294.252-.121.103-.238.198-.363.311-.118.107-.24.231-.361.348-.111.107-.219.205-.332.32-.202.206-.406.433-.61.666-.034.039-.067.071-.101.11a17.146 17.146 0 0 0-2.699 4.312 1.635 1.635 0 0 0 .521 1.989 1.677 1.677 0 0 0 2.084-.042c1.709-1.407 4.902-3.703 7.521-3.53-.026 2.813.123 8.915 1.795 11.519.3.467.811.756 1.363.772h.05c.534 0 1.037-.255 1.354-.69 1.037-1.425 3.413-5.356 3.405-11.434 1.461.096 4.432.587 6.794 2.894a1.647 1.647 0 0 0 1.907.301 1.66 1.66 0 0 0 .918-1.716 8.702 8.702 0 0 0-.324-1.479l-.018-.068a8.695 8.695 0 0 0-.652-1.499c-.038-.071-.066-.14-.107-.211-.125-.217-.278-.435-.43-.652-.053-.076-.094-.152-.15-.228-.13-.174-.288-.347-.437-.52-.102-.119-.189-.239-.3-.357-.13-.138-.29-.273-.434-.409-.158-.15-.302-.302-.477-.45-.151-.127-.334-.249-.499-.374-.199-.151-.383-.305-.603-.452a19.53 19.53 0 0 1 1.884-.219l.092-.006a28.332 28.332 0 0 1 1.108-.053c.158-.005.321-.008.488-.01l.232-.004c.305-.003.628-.001.963.004l.359.032c.296.04.593.075.89.111l.248.029c6.068 4.245 9.547 10.66 9.547 17.611 0 12.252-10.967 22.217-24.447 22.217z"/><path d="M6.452 30.709a.99.99 0 0 0-1.135-.844A1 1 0 0 0 4.473 31a11.322 11.322 0 0 0 1.457 4.146 1 1 0 0 0 1.721-1.02 9.408 9.408 0 0 1-1.199-3.417zM5.518 27.676a.999.999 0 0 0 1.066-.928c.08-1.139.313-2.244.694-3.285a1 1 0 1 0-1.879-.687 14.093 14.093 0 0 0-.811 3.834c-.037.55.378 1.028.93 1.066z"/></svg>
